<?xml version="1.0" encoding="UTF-8" standalone="no"?>
<!-- Created with Inkscape (http://www.inkscape.org/) -->

<svg
   width="100mm"
   height="100mm"
   viewBox="0 0 100 100"
   version="1.1"
   id="svg1"
   xml:space="preserve"
   inkscape:version="1.4.2 (f4327f4, 2025-05-13)"
   sodipodi:docname="motor.svg"
   xmlns:inkscape="http://www.inkscape.org/namespaces/inkscape"
   xmlns:sodipodi="http://sodipodi.sourceforge.net/DTD/sodipodi-0.dtd"
   xmlns="http://www.w3.org/2000/svg"
   xmlns:svg="http://www.w3.org/2000/svg"><sodipodi:namedview
     id="namedview1"
     pagecolor="#505050"
     bordercolor="#eeeeee"
     borderopacity="1"
     inkscape:showpageshadow="0"
     inkscape:pageopacity="0"
     inkscape:pagecheckerboard="0"
     inkscape:deskcolor="#505050"
     inkscape:document-units="mm"
     inkscape:zoom="0.97386896"
     inkscape:cx="-34.398878"
     inkscape:cy="137.0821"
     inkscape:window-width="1920"
     inkscape:window-height="991"
     inkscape:window-x="-9"
     inkscape:window-y="-9"
     inkscape:window-maximized="1"
     inkscape:current-layer="layer8" /><defs
     id="defs1" /><g
     inkscape:groupmode="layer"
     id="layer8"
     inkscape:label="Шар 2"><path
       style="opacity:1;fill:none;stroke:#000000;stroke-width:2;stroke-linecap:round;stroke-linejoin:round"
       d="m 28.526681,45.371009 c 0.291214,13.594814 44.460108,11.82249 44.963485,-0.135843"
       id="path2"
       sodipodi:nodetypes="cc" /><path
       style="opacity:1;fill:none;stroke:#000000;stroke-width:2;stroke-linecap:round;stroke-linejoin:round"
       d="m 46.457737,19.425311 v 19.832836 c 1.76507,2.796111 7.1505,2.803119 8.558006,-0.13584 L 54.744061,19.28947 c -2.881048,-2.115181 -6.499448,-1.777697 -8.286324,0.135841 z"
       id="path3"
       sodipodi:nodetypes="ccccc" /><path
       style="opacity:1;fill:none;stroke:#000000;stroke-width:2;stroke-linecap:round;stroke-linejoin:round"
       d="m 45.914373,34.911225 c -7.676677,1.424693 -14.04204,4.160699 -17.387692,9.916417 l -0.271682,17.116009 c 0.216235,16.224367 44.449266,15.599146 44.284275,0.407525 l 1.086731,-17.251852 c -3.64165,-5.55028 -9.310638,-9.073222 -17.659373,-9.916417"
       id="path6"
       sodipodi:nodetypes="cccccc" /><path
       style="opacity:1;fill:none;stroke:#000000;stroke-width:2;stroke-linecap:round;stroke-linejoin:round"
       d="m 28.254999,61.400287 c 3.598458,8.977202 39.233389,9.772267 44.216356,-10e-7"
       id="path7"
       sodipodi:nodetypes="cc" /><path
       style="opacity:1;fill:none;stroke:#000000;stroke-width:2;stroke-linecap:round;stroke-linejoin:round"
       d="m 30.632222,44.352196 0.611286,2.852669 c 7.358953,-6.917032 8.313524,-8.781717 -0.611286,-2.852669 z"
       id="path8"
       sodipodi:nodetypes="ccc" /><path
       style="opacity:1;fill:none;stroke:#000000;stroke-width:2;stroke-linecap:round;stroke-linejoin:round"
       d="m 34.775383,49.378327 c 5.78786,-5.321463 10.843854,-9.008994 8.965528,2.784747 z"
       id="path9"
       sodipodi:nodetypes="ccc" /><path
       style="opacity:1;fill:none;stroke:#000000;stroke-width:2;stroke-linecap:round;stroke-linejoin:round"
       d="m 48.970803,52.163074 c 1.799392,-9.069939 5.242426,-9.92167 10.663546,-0.882967 z"
       id="path10"
       sodipodi:nodetypes="ccc" /><path
       style="opacity:1;fill:none;stroke:#000000;stroke-width:2;stroke-linecap:round;stroke-linejoin:round"
       d="M 65.000081,50.125455 C 64.337735,47.067981 56.198233,37.779544 70.433736,47.136944 Z"
       id="path11"
       sodipodi:nodetypes="ccc" /><path
       style="opacity:1;fill:none;stroke:#000000;stroke-width:2;stroke-linecap:round;stroke-linejoin:round"
       d="m 68.582793,41.783634 1.921086,1.825033 c -5.68846,-3.571088 -9.915518,-6.59386 -1.921086,-1.825033 z"
       id="path12"
       sodipodi:nodetypes="ccc" /><path
       style="opacity:1;fill:none;stroke:#000000;stroke-width:2;stroke-linecap:round;stroke-linejoin:round"
       d="m 32.669842,60.992763 c 6.133318,4.126758 21.1645,5.028214 28.254999,1.901777"
       id="path13"
       sodipodi:nodetypes="cc" /><path
       style="opacity:1;fill:none;stroke:#000000;stroke-width:2;stroke-linecap:round;stroke-linejoin:round"
       d="m 27.567593,59.073414 -7.300129,0.960544 -0.288163,6.627748 9.029107,-0.67238"
       id="path14" /><path
       style="opacity:1;fill:none;stroke:#000000;stroke-width:2;stroke-linecap:round;stroke-linejoin:round"
       d="M 19.883247,61.18661 4.1303363,62.531371 3.8421733,66.565652 19.210866,65.316946"
       id="path15"
       sodipodi:nodetypes="cccc" /><path
       style="opacity:1;fill:none;stroke:#000000;stroke-width:2;stroke-linecap:round;stroke-linejoin:round"
       d="m 33.620731,57.93633 c 4.686527,2.806658 9.373053,2.711857 14.05958,2.309305"
       id="path16"
       sodipodi:nodetypes="cc" /><path
       style="opacity:1;fill:none;stroke:#000000;stroke-width:2;stroke-linecap:round;stroke-linejoin:round"
       d="m 46.729421,22.006297 c 2.688207,0.821888 5.368145,1.528008 7.878799,-0.135841"
       id="path17"
       sodipodi:nodetypes="cc" /><path
       style="opacity:1;fill:none;stroke:#000000;stroke-width:2;stroke-linecap:round;stroke-linejoin:round"
       d="m 46.865262,25.198568 c 2.445144,0.892808 4.890289,1.623812 7.335433,0.203763"
       id="path18"
       sodipodi:nodetypes="cc" /><path
       style="opacity:1;fill:none;stroke:#000000;stroke-width:2;stroke-linecap:round;stroke-linejoin:round"
       d="m 46.661501,29.47757 c 2.535705,0.688425 5.071409,1.328698 7.607114,0.06792"
       id="path19"
       sodipodi:nodetypes="cc" /></g></svg>
