<?xml version="1.0" encoding="iso-8859-1"?>
<!-- Uploaded to: SVG Repo, www.svgrepo.com, Generator: SVG Repo Mixer Tools -->
<svg height="800px" width="800px" version="1.1" id="Capa_1" xmlns="http://www.w3.org/2000/svg" xmlns:xlink="http://www.w3.org/1999/xlink" 
	 viewBox="0 0 30.724 30.724" xml:space="preserve">
<g>
	<path style="fill:#030104;" d="M21.342,17.624c-0.659,0-1.273,0.191-1.794,0.525l4.624,4.623c0.332-0.52,0.522-1.135,0.522-1.797
		C24.695,19.128,23.191,17.624,21.342,17.624z"/>
	<path style="fill:#030104;" d="M17.993,20.975c0,1.85,1.502,3.355,3.35,3.355c0.662,0,1.277-0.195,1.797-0.525l-4.626-4.625
		C18.183,19.702,17.993,20.315,17.993,20.975z"/>
	<path style="fill:#030104;" d="M30.718,26.475l0.005-19.877c0-0.611-0.498-1.105-1.11-1.105H15.598
		c-0.435-0.012-0.772-0.809-0.772-1.111V4.253c0-0.652-0.529-1.18-1.179-1.18H6.185c-0.649,0-1.179,0.527-1.179,1.18v0.129
		c0,0.307-0.34,1.115-0.781,1.115h0.009c-0.602,0.008-1.09,0.5-1.09,1.105l0.003,5.754H0.764c0,0-1.057-0.057-0.684,1.199
		l2.516,12.92c0,0.65,0.453,1.176,1.104,1.176h26.473C30.825,27.651,30.718,26.475,30.718,26.475z M21.342,25.792
		c-2.658,0-4.814-2.156-4.814-4.816c0-2.658,2.156-4.814,4.814-4.814c2.661,0,4.816,2.156,4.816,4.814
		C26.159,23.635,24.003,25.792,21.342,25.792z M29.36,14.022l-0.012,12.971l-2.504-13.906c-0.213-0.764-1.076-0.711-1.076-0.711
		H4.51V7.962h24.85C29.36,7.962,29.36,14.022,29.36,14.022z"/>
</g>
</svg>