<?xml version="1.0" encoding="UTF-8" standalone="no"?>
<!-- Created with Inkscape (http://www.inkscape.org/) -->

<svg
   width="100mm"
   height="100mm"
   viewBox="0 0 100 100"
   version="1.1"
   id="svg1"
   xml:space="preserve"
   inkscape:version="1.4.2 (f4327f4, 2025-05-13)"
   sodipodi:docname="vtx.svg"
   xmlns:inkscape="http://www.inkscape.org/namespaces/inkscape"
   xmlns:sodipodi="http://sodipodi.sourceforge.net/DTD/sodipodi-0.dtd"
   xmlns="http://www.w3.org/2000/svg"
   xmlns:svg="http://www.w3.org/2000/svg"><sodipodi:namedview
     id="namedview1"
     pagecolor="#505050"
     bordercolor="#eeeeee"
     borderopacity="1"
     inkscape:showpageshadow="0"
     inkscape:pageopacity="0"
     inkscape:pagecheckerboard="0"
     inkscape:deskcolor="#505050"
     inkscape:document-units="mm"
     inkscape:zoom="1.9477379"
     inkscape:cx="251.31718"
     inkscape:cy="175.3316"
     inkscape:window-width="1920"
     inkscape:window-height="991"
     inkscape:window-x="-9"
     inkscape:window-y="-9"
     inkscape:window-maximized="1"
     inkscape:current-layer="svg1" /><defs
     id="defs1" /><g
     inkscape:groupmode="layer"
     id="layer4"
     inkscape:label="Шар 2"
     style="stroke-width:2;stroke-dasharray:none"><path
       style="opacity:1;fill:none;stroke:#000000;stroke-width:2.3726;stroke-linecap:round;stroke-linejoin:round;stroke-dasharray:none"
       d="M 94.159571,45.692918 77.239005,70.993197 c -3.240927,3.843325 -7.304224,2.478304 -11.441527,0.64459 L 12.296257,52.461145 C 7.6853811,51.08423 5.6648691,48.720512 10.040182,43.920288 L 25.188117,24.260202 c 1.900088,-2.089653 3.950441,-4.05909 10.313488,-2.578373 l 52.534333,18.048603 c 3.801824,1.104211 7.157436,2.463402 6.768228,5.962486 L 93.837275,53.266886 77.077858,79.534054 C 74.9009,81.512209 73.05833,83.872525 66.76437,81.145536 L 10.201329,61.002004 C 8.0950521,60.097344 6.8204831,58.568901 7.1395131,55.84526 l 0.3671518,-6.99447"
       id="path39"
       sodipodi:nodetypes="ccccccccccccccc" /><path
       style="opacity:1;fill:none;stroke:#000000;stroke-width:2.3726;stroke-linecap:round;stroke-linejoin:round;stroke-dasharray:none"
       d="m 14.874629,39.730432 8.379711,2.90067 8.057411,-9.991192 -8.863152,-3.384115"
       id="path40"
       sodipodi:nodetypes="cccc" /><path
       style="opacity:1;fill:none;stroke:#000000;stroke-width:2.3726;stroke-linecap:round;stroke-linejoin:round;stroke-dasharray:none"
       d="m 26.140538,28.230591 9.685668,3.304524 11.394901,-2.165032 21.19452,6.836942 6.609042,8.660126 12.648342,4.216112"
       id="path41" /><path
       style="opacity:1;fill:none;stroke:#000000;stroke-width:2.3726;stroke-linecap:round;stroke-linejoin:round;stroke-dasharray:none"
       d="m 14.175888,44.069506 12.0786,3.988216 2.848724,6.836941 23.35955,8.888026 12.078597,-2.165033 12.078596,4.330064"
       id="path42" /><path
       style="opacity:1;fill:none;stroke:#000000;stroke-width:2.3726;stroke-linecap:round;stroke-linejoin:round;stroke-dasharray:none"
       d="m 35.940154,35.40938 10.939106,-2.165031 18.801591,6.609044 4.899807,7.406686 14.92732,5.8114"
       id="path43" /><path
       style="opacity:1;fill:none;stroke:#000000;stroke-width:2.3726;stroke-linecap:round;stroke-linejoin:round;stroke-dasharray:none"
       d="m 29.44506,44.411353 4.899808,8.546177 18.231842,6.609044 11.964649,-2.051082 14.01573,4.444012"
       id="path44" /><ellipse
       style="opacity:1;fill:none;stroke:#000000;stroke-width:2.3726;stroke-linecap:round;stroke-linejoin:round;stroke-dasharray:none"
       id="path45"
       cx="11.953884"
       cy="48.05772"
       rx="1.424363"
       ry="1.0255412" /><ellipse
       style="fill:none;stroke:#000000;stroke-width:2.3726;stroke-linecap:round;stroke-linejoin:round;stroke-dasharray:none"
       id="path45-6"
       cx="89.528564"
       cy="44.1707"
       rx="1.424363"
       ry="1.0255412" /><ellipse
       style="fill:none;stroke:#000000;stroke-width:2.3726;stroke-linecap:round;stroke-linejoin:round;stroke-dasharray:none"
       id="path45-3"
       cx="31.439972"
       cy="24.750805"
       rx="1.424363"
       ry="1.0255412" /><ellipse
       style="fill:none;stroke:#000000;stroke-width:2.3726;stroke-linecap:round;stroke-linejoin:round;stroke-dasharray:none"
       id="path45-1"
       cx="72.375298"
       cy="69.564514"
       rx="1.424363"
       ry="1.0255412" /><ellipse
       style="fill:none;stroke:#000000;stroke-width:2.3726;stroke-linecap:round;stroke-linejoin:round;stroke-dasharray:none"
       id="path45-18"
       cx="41.094791"
       cy="49.041214"
       rx="1.424363"
       ry="1.0255412"
       transform="rotate(22.288682)" /><ellipse
       style="fill:none;stroke:#000000;stroke-width:2.3726;stroke-linecap:round;stroke-linejoin:round;stroke-dasharray:none"
       id="path45-18-5"
       cx="83.33889"
       cy="47.184456"
       rx="1.424363"
       ry="1.0255412"
       transform="rotate(22.288682)" /></g><path
     style="opacity:1;fill:none;stroke:#000000;stroke-width:2.3726;stroke-linecap:round;stroke-linejoin:round;stroke-dasharray:none"
     d="m 24.887099,62.985045 12.078596,4.330063"
     id="path46" /><path
     style="opacity:1;fill:none;stroke:#000000;stroke-width:2.3726;stroke-linecap:round;stroke-linejoin:round;stroke-dasharray:none"
     d="m 44.714228,70.049884 8.660126,3.190573"
     id="path47" /><path
     style="opacity:1;fill:none;stroke:#000000;stroke-width:2.3726;stroke-linecap:round;stroke-linejoin:round;stroke-dasharray:none"
     d="M 46.76531,40.081291 59.7555,44.639252"
     id="path48" /><path
     style="opacity:1;fill:none;stroke:#000000;stroke-width:2.3726;stroke-linecap:round;stroke-linejoin:round;stroke-dasharray:none"
     d="m 40.726013,43.727659 12.306494,4.216115"
     id="path49"
     sodipodi:nodetypes="cc" /><path
     style="opacity:1;fill:none;stroke:#000000;stroke-width:2.3726;stroke-linecap:round;stroke-linejoin:round;stroke-dasharray:none"
     d="m 41.06786,49.653009 12.192545,4.330062"
     id="path50" /><ellipse
     style="opacity:1;fill:none;stroke:#000000;stroke-width:2.3726;stroke-linecap:round;stroke-linejoin:round;stroke-dasharray:none"
     id="path51"
     cx="-13.171644"
     cy="105.14549"
     rx="2.7347765"
     ry="1.7092353"
     transform="rotate(-64.194735)" /></svg>
